<?xml version="1.0" encoding="UTF-8" standalone="no"?>
<svg
   xmlns:dc="http://purl.org/dc/elements/1.1/"
   xmlns:cc="http://creativecommons.org/ns#"
   xmlns:rdf="http://www.w3.org/1999/02/22-rdf-syntax-ns#"
   xmlns:svg="http://www.w3.org/2000/svg"
   xmlns="http://www.w3.org/2000/svg"
   id="svg224"
   version="1.1"
   viewBox="0 0 60.639997 60.626999"
   height="60.626999"
   width="60.639999">
  <metadata
     id="metadata230">
    <rdf:RDF>
      <cc:Work
         rdf:about="">
        <dc:format>image/svg+xml</dc:format>
        <dc:type
           rdf:resource="http://purl.org/dc/dcmitype/StillImage" />
        <dc:title></dc:title>
      </cc:Work>
    </rdf:RDF>
  </metadata>
  <defs
     id="defs228" />
  <g
     transform="translate(-25.891)"
     style="fill:#333333"
     id="g222">
    <circle
       style="fill:#108e33;fill-opacity:1"
       id="circle16"
       r="1.642"
       cy="30.344"
       cx="56.174" />
    <path
       style="fill:#108e33;fill-opacity:1"
       id="path18"
       d="m 60.312,27.79 c 0,-0.905 -0.737,-1.643 -1.642,-1.643 -0.905,0 -1.64,0.737 -1.64,1.644 0,0.905 0.735,1.64 1.64,1.64 0.905,0 1.642,-0.735 1.642,-1.64 z m 0,5.11 c 0,-0.905 -0.737,-1.643 -1.642,-1.643 -0.905,0 -1.64,0.737 -1.64,1.644 0,0.905 0.735,1.64 1.64,1.64 0.905,0 1.642,-0.734 1.642,-1.64 z" />
    <circle
       style="fill:#108e33;fill-opacity:1"
       id="circle20"
       r="1.642"
       cy="30.263"
       cx="61.499001" />
    <path
       style="fill:#004191;fill-opacity:1"
       id="path22"
       d="m 64.586,26.045 c -0.903,0 -1.64,0.736 -1.64,1.642 0,0.905 0.736,1.64 1.64,1.64 0.906,0 1.644,-0.735 1.644,-1.64 0,-0.906 -0.738,-1.642 -1.644,-1.642 z" />
    <circle
       style="fill:#108e33;fill-opacity:1"
       id="circle24"
       r="1.642"
       cy="32.957001"
       cx="64.561996" />
    <path
       style="fill:#108e33;fill-opacity:1"
       id="path26"
       d="m 61.388,37.15 c 0.906,0 1.644,-0.735 1.644,-1.64 0,-0.906 -0.737,-1.644 -1.644,-1.644 -0.904,0 -1.64,0.737 -1.64,1.644 0,0.905 0.735,1.64 1.64,1.64 z m -0.918,1.54 c 0,-0.907 -0.737,-1.644 -1.644,-1.644 -0.903,0 -1.64,0.737 -1.64,1.643 0,0.904 0.736,1.64 1.64,1.64 0.906,0 1.644,-0.736 1.644,-1.64 z" />
    <circle
       style="fill:#108e33;fill-opacity:1"
       id="circle28"
       r="1.642"
       cy="42.173"
       cx="56.271" />
    <circle
       style="fill:#004191;fill-opacity:1"
       id="circle30"
       r="1.642"
       cy="30.268999"
       cx="68.055" />
    <circle
       style="fill:#108e33;fill-opacity:1"
       id="circle32"
       r="1.642"
       cy="35.752998"
       cx="67.884003" />
    <path
       style="fill:#108e33;fill-opacity:1"
       id="path34"
       d="m 71.722,31.64 c -0.903,0 -1.64,0.737 -1.64,1.644 0,0.903 0.736,1.64 1.64,1.64 0.905,0 1.644,-0.737 1.644,-1.64 0,-0.907 -0.74,-1.644 -1.644,-1.644 z m 1.198,7.2 c 0,-0.905 -0.736,-1.643 -1.643,-1.643 -0.902,0 -1.64,0.738 -1.64,1.644 0,0.904 0.737,1.642 1.64,1.642 0.907,0 1.644,-0.738 1.644,-1.64 z" />
    <circle
       style="fill:#108e33;fill-opacity:1"
       id="circle36"
       r="1.642"
       cy="41.300999"
       cx="67.304001" />
    <path
       style="fill:#108e33;fill-opacity:1"
       id="path38"
       d="m 61.643,43.6 c 0.906,0 1.644,-0.735 1.644,-1.64 0,-0.906 -0.737,-1.643 -1.644,-1.643 -0.903,0 -1.64,0.737 -1.64,1.643 0,0.905 0.736,1.64 1.64,1.64 z m -2.571,3.84 c 0.906,0 1.644,-0.735 1.644,-1.638 0,-0.906 -0.737,-1.644 -1.644,-1.644 -0.902,0 -1.64,0.737 -1.64,1.644 0,0.903 0.738,1.64 1.64,1.64 z" />
    <circle
       style="fill:#108e33;fill-opacity:1"
       id="circle40"
       r="1.642"
       cy="49.875"
       cx="56.251999" />
    <path
       style="fill:#108e33;fill-opacity:1"
       id="path42"
       d="m 65.87,38.312 c 0,-0.906 -0.736,-1.644 -1.643,-1.644 -0.907,0 -1.64,0.737 -1.64,1.644 0,0.904 0.733,1.64 1.64,1.64 0.907,0 1.644,-0.735 1.644,-1.64 z m 9.698,-3.67 c -0.903,0 -1.64,0.737 -1.64,1.644 0,0.904 0.736,1.64 1.64,1.64 0.905,0 1.643,-0.736 1.643,-1.64 0,-0.907 -0.736,-1.644 -1.642,-1.644 z" />
    <circle
       style="fill:#108e33;fill-opacity:1"
       id="circle44"
       r="1.642"
       cy="42.196999"
       cx="74.957001" />
    <circle
       style="fill:#108e33;fill-opacity:1"
       id="circle46"
       r="1.642"
       cy="45.728001"
       cx="78.997002" />
    <path
       style="fill:#108e33;fill-opacity:1"
       id="path48"
       d="m 74.017,46.397 c -0.903,0 -1.64,0.738 -1.64,1.644 0,0.904 0.736,1.64 1.64,1.64 0.906,0 1.644,-0.736 1.644,-1.64 0,-0.905 -0.737,-1.643 -1.643,-1.643 z" />
    <circle
       style="fill:#108e33;fill-opacity:1"
       id="circle50"
       r="1.642"
       cy="44.667"
       cx="70.583" />
    <path
       style="fill:#108e33;fill-opacity:1"
       id="path52"
       d="m 68.14,50.677 c 0.905,0 1.643,-0.735 1.643,-1.64 0,-0.905 -0.737,-1.642 -1.644,-1.642 -0.904,0 -1.64,0.737 -1.64,1.642 0,0.905 0.735,1.64 1.64,1.64 z m -5.962,0.617 c 0.906,0 1.645,-0.735 1.645,-1.64 0,-0.906 -0.738,-1.643 -1.645,-1.643 -0.902,0 -1.64,0.738 -1.64,1.644 0,0.905 0.737,1.64 1.64,1.64 z M 66.39,45.39 c 0,-0.907 -0.738,-1.645 -1.644,-1.645 -0.906,0 -1.642,0.737 -1.642,1.644 0,0.902 0.736,1.638 1.642,1.638 0.906,0 1.643,-0.736 1.643,-1.64 z" />
    <circle
       style="fill:#108e33;fill-opacity:1"
       id="circle54"
       r="1.642"
       cy="51.881001"
       cx="77.841003" />
    <circle
       style="fill:#108e33;fill-opacity:1"
       id="circle56"
       r="1.641"
       cy="53.066002"
       cx="71.609001" />
    <circle
       style="fill:#108e33;fill-opacity:1"
       id="circle58"
       r="1.642"
       cy="57.846001"
       cx="68.918999" />
    <path
       style="fill:#108e33;fill-opacity:1"
       id="path60"
       d="m 65.412,52.097 c -0.903,0 -1.64,0.737 -1.64,1.643 0,0.905 0.736,1.64 1.64,1.64 0.906,0 1.643,-0.735 1.643,-1.64 0,-0.906 -0.737,-1.643 -1.643,-1.643 z m -2.849,4.93 c -0.903,0 -1.64,0.737 -1.64,1.643 0,0.905 0.736,1.64 1.64,1.64 0.906,0 1.644,-0.735 1.644,-1.64 0,-0.905 -0.737,-1.643 -1.644,-1.643 z" />
    <circle
       style="fill:#108e33;fill-opacity:1"
       id="circle62"
       r="1.642"
       cy="54.148998"
       cx="59.223999" />
    <circle
       style="fill:#108e33;fill-opacity:1"
       id="circle64"
       r="1.641"
       cy="58.986"
       cx="56.277" />
    <path
       style="fill:#108e33;fill-opacity:1"
       id="path66"
       d="m 53.127,52.507 c -0.903,0 -1.64,0.737 -1.64,1.644 0,0.905 0.736,1.64 1.64,1.64 0.905,0 1.643,-0.734 1.643,-1.64 0,-0.905 -0.738,-1.643 -1.643,-1.643 z m -3.299,4.538 c -0.903,0 -1.64,0.737 -1.64,1.644 0,0.903 0.736,1.64 1.64,1.64 0.906,0 1.644,-0.737 1.644,-1.64 0,-0.908 -0.738,-1.645 -1.644,-1.645 z" />
    <circle
       style="fill:#108e33;fill-opacity:1"
       id="circle68"
       r="1.642"
       cy="57.841"
       cx="43.643002" />
    <circle
       style="fill:#108e33;fill-opacity:1"
       id="circle70"
       r="1.642"
       cy="39.5"
       cx="79.678001" />
    <circle
       style="fill:#108e33;fill-opacity:1"
       id="circle72"
       r="1.642"
       cy="42.883999"
       cx="83.783997" />
    <circle
       style="fill:#108e33;fill-opacity:1"
       id="circle74"
       r="1.642"
       cy="36.647999"
       cx="84.612999" />
    <circle
       style="fill:#108e33;fill-opacity:1"
       id="circle76"
       r="1.642"
       cy="33.390999"
       cx="80.053001" />
    <circle
       style="fill:#108e33;fill-opacity:1"
       id="circle78"
       r="1.642"
       cy="30.285"
       cx="84.889" />
    <circle
       style="fill:#004191;fill-opacity:1"
       id="circle80"
       r="1.642"
       cy="27.318001"
       cx="80.051003" />
    <circle
       style="fill:#004191;fill-opacity:1"
       id="circle82"
       r="1.642"
       cy="23.944"
       cx="84.594002" />
    <path
       style="fill:#004191;fill-opacity:1"
       id="path84"
       d="m 78.006,21.112 c 0,0.905 0.736,1.64 1.64,1.64 0.906,0 1.643,-0.735 1.643,-1.64 0,-0.905 -0.737,-1.642 -1.644,-1.642 -0.904,0 -1.64,0.737 -1.64,1.642 z M 83.78,19.27 c 0.907,0 1.646,-0.735 1.646,-1.64 0,-0.905 -0.738,-1.64 -1.645,-1.64 -0.9,0 -1.64,0.735 -1.64,1.64 0.002,0.906 0.74,1.64 1.64,1.64 z" />
    <circle
       style="fill:#004191;fill-opacity:1"
       id="circle86"
       r="1.642"
       cy="14.947"
       cx="78.987" />
    <path
       style="fill:#004191;fill-opacity:1"
       id="path88"
       d="m 77.827,10.443 c 0.906,0 1.644,-0.736 1.644,-1.64 0,-0.906 -0.736,-1.642 -1.643,-1.642 -0.903,0 -1.64,0.737 -1.64,1.643 0,0.905 0.737,1.64 1.64,1.64 z" />
    <circle
       style="fill:#004191;fill-opacity:1"
       id="circle90"
       r="1.641"
       cy="12.601"
       cx="74.049004" />
    <circle
       style="fill:#004191;fill-opacity:1"
       id="circle92"
       r="1.642"
       cy="15.985"
       cx="70.549004" />
    <path
       style="fill:#004191;fill-opacity:1"
       id="path94"
       d="m 65.65,19.33 c 0,0.904 0.738,1.64 1.642,1.64 0.906,0 1.644,-0.736 1.644,-1.64 0,-0.907 -0.737,-1.644 -1.644,-1.644 -0.903,0 -1.64,0.737 -1.64,1.643 z" />
    <circle
       style="fill:#004191;fill-opacity:1"
       id="circle96"
       r="1.642"
       cy="15.261"
       cx="64.769997" />
    <circle
       style="fill:#004191;fill-opacity:1"
       id="circle98"
       r="1.641"
       cy="11.019"
       cx="62.16" />
    <circle
       style="fill:#004191;fill-opacity:1"
       id="circle100"
       r="1.642"
       cy="14.815"
       cx="59.095001" />
    <circle
       style="fill:#bd3333;fill-opacity:1"
       id="circle102"
       r="1.641"
       cy="14.852"
       cx="53.254002" />
    <circle
       style="fill:#004191;fill-opacity:1"
       id="circle104"
       r="1.642"
       cy="18.705"
       cx="50.784" />
    <path
       style="fill:#004191;fill-opacity:1"
       id="path106"
       d="m 51.897,22.005 c 0,0.904 0.737,1.64 1.64,1.64 0.907,0 1.645,-0.736 1.645,-1.64 0,-0.906 -0.737,-1.644 -1.644,-1.644 -0.903,0 -1.64,0.74 -1.64,1.645 z" />
    <circle
       style="fill:#004191;fill-opacity:1"
       id="circle108"
       r="1.641"
       cy="22.329"
       cx="48.213001" />
    <circle
       style="fill:#004191;fill-opacity:1"
       id="circle110"
       r="1.642"
       cy="24.905001"
       cx="44.555" />
    <path
       style="fill:#004191;fill-opacity:1"
       id="path112"
       d="m 40.708,29.09 c 0.906,0 1.644,-0.736 1.644,-1.64 0,-0.907 -0.737,-1.643 -1.644,-1.643 -0.902,0 -1.64,0.736 -1.64,1.642 0,0.904 0.738,1.64 1.64,1.64 z" />
    <circle
       style="fill:#bd3333;fill-opacity:1"
       id="circle114"
       r="1.642"
       cy="21.796"
       cx="41.125999" />
    <circle
       style="fill:#bd3333;fill-opacity:1"
       id="circle116"
       r="1.641"
       cy="24.348"
       cx="36.848999" />
    <path
       style="fill:#bd3333;fill-opacity:1"
       id="path118"
       d="m 32.35,28.927 c 0.906,0 1.644,-0.735 1.644,-1.64 0,-0.906 -0.737,-1.644 -1.644,-1.644 -0.903,0 -1.64,0.737 -1.64,1.644 0,0.905 0.736,1.64 1.64,1.64 z M 27.81,25.57 c 0.906,0 1.644,-0.735 1.644,-1.638 0,-0.906 -0.737,-1.643 -1.643,-1.643 -0.905,0 -1.64,0.736 -1.64,1.642 0,0.903 0.734,1.64 1.64,1.64 z" />
    <circle
       style="fill:#bd3333;fill-opacity:1"
       id="circle120"
       r="1.642"
       cy="21.125"
       cx="32.775002" />
    <path
       style="fill:#bd3333;fill-opacity:1"
       id="path122"
       d="m 28.66,15.966 c -0.905,0 -1.64,0.737 -1.64,1.643 0,0.902 0.734,1.638 1.64,1.638 0.906,0 1.643,-0.736 1.643,-1.64 0,-0.905 -0.738,-1.642 -1.643,-1.642 z m 4.83,0.629 c 0.905,0 1.643,-0.735 1.643,-1.64 0,-0.906 -0.737,-1.644 -1.644,-1.644 -0.904,0 -1.642,0.738 -1.642,1.645 0,0.904 0.738,1.64 1.64,1.64 z m 3.98,0.165 c -0.906,0 -1.642,0.738 -1.642,1.645 0,0.903 0.735,1.64 1.64,1.64 0.907,0 1.643,-0.737 1.643,-1.64 0,-0.907 -0.735,-1.644 -1.64,-1.644 z" />
    <circle
       style="fill:#bd3333;fill-opacity:1"
       id="circle124"
       r="1.641"
       cy="15.97"
       cx="41.904999" />
    <circle
       style="fill:#bd3333;fill-opacity:1"
       id="circle126"
       r="1.642"
       cy="19.334"
       cx="45.116001" />
    <circle
       style="fill:#bd3333;fill-opacity:1"
       id="circle128"
       r="1.642"
       cy="30.261"
       cx="36.641998" />
    <path
       style="fill:#004191;fill-opacity:1"
       id="path130"
       d="m 56.28,16.87 c -0.903,0 -1.64,0.736 -1.64,1.642 0,0.905 0.736,1.64 1.64,1.64 0.906,0 1.643,-0.735 1.643,-1.64 0,-0.906 -0.736,-1.642 -1.643,-1.642 z" />
    <circle
       style="fill:#004191;fill-opacity:1"
       id="circle132"
       r="1.642"
       cy="11.573"
       cx="68.128998" />
    <circle
       style="fill:#004191;fill-opacity:1"
       id="circle134"
       r="1.641"
       cy="7.533"
       cx="71.612999" />
    <path
       style="fill:#004191;fill-opacity:1"
       id="path136"
       d="m 65.428,8.526 c 0.906,0 1.642,-0.736 1.642,-1.64 0,-0.905 -0.735,-1.642 -1.642,-1.642 -0.904,0 -1.64,0.737 -1.64,1.643 0,0.904 0.735,1.64 1.64,1.64 z m 3.502,-4.11 c 0.906,0 1.644,-0.735 1.644,-1.64 0,-0.905 -0.737,-1.642 -1.644,-1.642 -0.903,0 -1.64,0.737 -1.64,1.642 0,0.905 0.736,1.64 1.64,1.64 z" />
    <circle
       style="fill:#bd3333;fill-opacity:1"
       id="circle138"
       r="1.641"
       cy="1.971"
       cx="62.577999" />
    <path
       style="fill:#bd3333;fill-opacity:1"
       id="path140"
       d="m 56.258,3.284 c 0.906,0 1.643,-0.736 1.643,-1.64 C 57.9,0.737 57.165,0 56.26,0 c -0.904,0 -1.64,0.737 -1.64,1.644 0,0.904 0.736,1.64 1.64,1.64 z" />
    <circle
       style="fill:#bd3333;fill-opacity:1"
       id="circle142"
       r="1.642"
       cy="1.954"
       cx="49.818001" />
    <path
       style="fill:#bd3333;fill-opacity:1"
       id="path144"
       d="m 43.637,4.433 c 0.906,0 1.644,-0.736 1.644,-1.64 0,-0.906 -0.736,-1.644 -1.643,-1.644 -0.903,0 -1.64,0.736 -1.64,1.643 0,0.904 0.736,1.64 1.64,1.64 z m 9.445,3.705 c 0.906,0 1.644,-0.736 1.644,-1.64 0,-0.906 -0.737,-1.642 -1.644,-1.642 -0.904,0 -1.64,0.736 -1.64,1.642 0,0.904 0.736,1.64 1.64,1.64 z" />
    <circle
       style="fill:#bd3333;fill-opacity:1"
       id="circle146"
       r="1.642"
       cy="6.902"
       cx="46.998001" />
    <path
       style="fill:#bd3333;fill-opacity:1"
       id="path148"
       d="m 44.303,9.952 c -0.903,0 -1.64,0.738 -1.64,1.642 0,0.905 0.736,1.64 1.64,1.64 0.906,0 1.644,-0.735 1.644,-1.64 0,-0.905 -0.738,-1.642 -1.644,-1.642 z m -5.933,4.304 c 0.905,0 1.642,-0.736 1.642,-1.64 0,-0.907 -0.736,-1.643 -1.643,-1.643 -0.904,0 -1.642,0.736 -1.642,1.642 0,0.905 0.738,1.64 1.64,1.64 z m -3.472,-3.838 c 0.906,0 1.644,-0.737 1.644,-1.64 0,-0.907 -0.737,-1.645 -1.644,-1.645 -0.902,0 -1.64,0.738 -1.64,1.644 0,0.904 0.738,1.64 1.64,1.64 z m 5.95,-1.223 c 0.905,0 1.643,-0.736 1.643,-1.64 0,-0.905 -0.736,-1.643 -1.642,-1.643 -0.903,0 -1.64,0.737 -1.64,1.644 0,0.903 0.736,1.64 1.64,1.64 z" />
    <circle
       style="fill:#bd3333;fill-opacity:1"
       id="circle150"
       r="1.641"
       cy="15.242"
       cx="47.673" />
    <circle
       style="fill:#bd3333;fill-opacity:1"
       id="circle152"
       r="1.642"
       cy="10.996"
       cx="50.215" />
    <circle
       style="fill:#bd3333;fill-opacity:1"
       id="circle154"
       r="1.641"
       cy="6.4959998"
       cx="59.215" />
    <circle
       style="fill:#bd3333;fill-opacity:1"
       id="circle156"
       r="1.642"
       cy="10.745"
       cx="56.266998" />
    <path
       style="fill:#004191;fill-opacity:1"
       id="path158"
       d="m 65.813,22.31 c 0,-0.906 -0.738,-1.643 -1.644,-1.643 -0.906,0 -1.642,0.737 -1.642,1.643 0,0.904 0.735,1.64 1.64,1.64 0.905,0 1.645,-0.736 1.645,-1.64 z m -4.389,1.187 c -0.905,0 -1.64,0.737 -1.64,1.644 0,0.904 0.734,1.64 1.64,1.64 0.906,0 1.643,-0.736 1.643,-1.64 0,-0.906 -0.738,-1.643 -1.643,-1.643 z" />
    <circle
       style="fill:#004191;fill-opacity:1"
       id="circle160"
       r="1.641"
       cy="21.934"
       cx="58.851002" />
    <circle
       style="fill:#004191;fill-opacity:1"
       id="circle162"
       r="1.641"
       cy="25.030001"
       cx="56.254002" />
    <path
       style="fill:#004191;fill-opacity:1"
       id="path164"
       d="m 52.035,27.79 c 0,0.905 0.736,1.64 1.64,1.64 0.905,0 1.643,-0.735 1.643,-1.64 0,-0.905 -0.737,-1.643 -1.643,-1.643 -0.904,0 -1.64,0.737 -1.64,1.644 z M 51.05,23.528 c -0.904,0 -1.64,0.737 -1.64,1.643 0,0.904 0.735,1.64 1.64,1.64 0.905,0 1.642,-0.735 1.642,-1.64 0,-0.905 -0.738,-1.642 -1.642,-1.642 z m -0.15,8.408 c 0.905,0 1.643,-0.737 1.643,-1.64 0,-0.906 -0.737,-1.643 -1.644,-1.643 -0.905,0 -1.64,0.737 -1.64,1.643 0,0.903 0.735,1.64 1.64,1.64 z" />
    <circle
       style="fill:#004191;fill-opacity:1"
       id="circle166"
       r="1.641"
       cy="27.733"
       cx="47.831001" />
    <circle
       style="fill:#004191;fill-opacity:1"
       id="circle168"
       r="1.641"
       cy="33"
       cx="47.846001" />
    <path
       style="fill:#004191;fill-opacity:1"
       id="path170"
       d="m 44.374,31.897 c 0.906,0 1.644,-0.736 1.644,-1.64 0,-0.907 -0.737,-1.645 -1.644,-1.645 -0.903,0 -1.64,0.738 -1.64,1.644 0,0.906 0.737,1.64 1.64,1.64 z" />
    <circle
       style="fill:#108e33;fill-opacity:1"
       id="circle172"
       r="1.641"
       cy="35.784"
       cx="44.638" />
    <path
       style="fill:#108e33;fill-opacity:1"
       id="path174"
       d="m 40.71,34.913 c 0.907,0 1.645,-0.736 1.645,-1.64 0,-0.907 -0.737,-1.644 -1.644,-1.644 -0.903,0 -1.64,0.736 -1.64,1.642 0,0.905 0.737,1.64 1.64,1.64 z m 0.457,5.63 c 0.906,0 1.644,-0.736 1.644,-1.64 0,-0.906 -0.736,-1.642 -1.643,-1.642 -0.903,0 -1.64,0.737 -1.64,1.643 0,0.905 0.737,1.64 1.64,1.64 z" />
    <circle
       style="fill:#108e33;fill-opacity:1"
       id="circle176"
       r="1.642"
       cy="42.249001"
       cx="37.473999" />
    <path
       style="fill:#bd3333;fill-opacity:1"
       id="path178"
       d="m 34.39,39.535 c 0,-0.906 -0.736,-1.644 -1.642,-1.644 -0.906,0 -1.64,0.738 -1.64,1.645 0,0.905 0.734,1.64 1.64,1.64 0.906,0 1.642,-0.735 1.642,-1.64 z m -4.924,-2.849 c 0,-0.906 -0.738,-1.644 -1.644,-1.644 -0.906,0 -1.64,0.737 -1.64,1.644 0,0.904 0.733,1.64 1.64,1.64 0.906,0 1.644,-0.736 1.644,-1.64 z m 2.884,-1.629 c 0.906,0 1.644,-0.736 1.644,-1.64 0,-0.906 -0.737,-1.644 -1.644,-1.644 -0.903,0 -1.64,0.737 -1.64,1.644 0,0.904 0.736,1.64 1.64,1.64 z m -4.82,-3.152 c 0.907,0 1.644,-0.736 1.644,-1.64 0,-0.905 -0.736,-1.642 -1.643,-1.642 -0.904,0 -1.64,0.737 -1.64,1.643 0.002,0.903 0.736,1.64 1.64,1.64 z m 9.324,6.002 c 0.906,0 1.644,-0.736 1.644,-1.64 0,-0.907 -0.737,-1.643 -1.644,-1.643 -0.904,0 -1.64,0.736 -1.64,1.642 0,0.905 0.736,1.64 1.64,1.64 z" />
    <circle
       style="fill:#108e33;fill-opacity:1"
       id="circle180"
       r="1.642"
       cy="42.880001"
       cx="28.643" />
    <path
       style="fill:#108e33;fill-opacity:1"
       id="path182"
       d="m 35.08,45.74 c 0,-0.906 -0.738,-1.644 -1.645,-1.644 -0.904,0 -1.64,0.737 -1.64,1.644 0,0.904 0.735,1.64 1.64,1.64 0.907,0 1.645,-0.735 1.645,-1.64 z M 55.317,32.9 c 0,-0.905 -0.737,-1.643 -1.643,-1.643 -0.903,0 -1.64,0.737 -1.64,1.644 0,0.905 0.736,1.64 1.64,1.64 0.906,0.002 1.643,-0.734 1.643,-1.64 z" />
    <circle
       style="fill:#108e33;fill-opacity:1"
       id="circle184"
       r="1.642"
       cy="35.584999"
       cx="56.250999" />
    <path
       style="fill:#108e33;fill-opacity:1"
       id="path186"
       d="m 55.167,38.69 c 0,-0.907 -0.737,-1.644 -1.644,-1.644 -0.903,0 -1.64,0.737 -1.64,1.643 0,0.904 0.736,1.64 1.64,1.64 0.907,0 1.644,-0.736 1.644,-1.64 z" />
    <circle
       style="fill:#108e33;fill-opacity:1"
       id="circle188"
       r="1.642"
       cy="41.959"
       cx="50.799999" />
    <circle
       style="fill:#108e33;fill-opacity:1"
       id="circle190"
       r="1.642"
       cy="45.818001"
       cx="53.283001" />
    <circle
       style="fill:#108e33;fill-opacity:1"
       id="circle192"
       r="1.642"
       cy="49.640999"
       cx="50.240002" />
    <path
       style="fill:#108e33;fill-opacity:1"
       id="path194"
       d="m 44.263,50.66 c 0.906,0 1.643,-0.735 1.643,-1.64 0,-0.906 -0.736,-1.643 -1.643,-1.643 -0.904,0 -1.64,0.737 -1.64,1.643 0,0.905 0.735,1.64 1.64,1.64 z m -2.337,-4.364 c 0.906,0 1.643,-0.736 1.643,-1.64 0,-0.906 -0.737,-1.642 -1.644,-1.642 -0.903,0 -1.642,0.735 -1.642,1.642 0,0.905 0.738,1.64 1.642,1.64 z" />
    <circle
       style="fill:#108e33;fill-opacity:1"
       id="circle196"
       r="1.642"
       cy="45.370998"
       cx="47.667" />
    <path
       style="fill:#108e33;fill-opacity:1"
       id="path198"
       d="m 46.77,41.287 c 0,-0.906 -0.737,-1.644 -1.642,-1.644 -0.905,0 -1.64,0.737 -1.64,1.644 0,0.905 0.734,1.64 1.64,1.64 0.904,0 1.642,-0.736 1.642,-1.64 z m 1.41,-1.34 c 0.906,0 1.643,-0.736 1.643,-1.64 0,-0.906 -0.736,-1.642 -1.643,-1.642 -0.904,0 -1.64,0.736 -1.64,1.642 0,0.904 0.735,1.64 1.64,1.64 z" />
    <circle
       style="fill:#108e33;fill-opacity:1"
       id="circle200"
       r="1.641"
       cy="35.481998"
       cx="51.047001" />
    <path
       style="fill:#108e33;fill-opacity:1"
       id="path202"
       d="m 39.997,48.042 c 0,-0.906 -0.736,-1.642 -1.643,-1.642 -0.903,0 -1.64,0.736 -1.64,1.642 0,0.905 0.736,1.64 1.64,1.64 0.907,0 1.643,-0.735 1.643,-1.64 z" />
    <circle
       style="fill:#108e33;fill-opacity:1"
       id="circle204"
       r="1.641"
       cy="53.068001"
       cx="40.799999" />
    <path
       style="fill:#108e33;fill-opacity:1"
       id="path206"
       d="m 34.854,50.232 c -0.903,0 -1.64,0.737 -1.64,1.643 0,0.903 0.736,1.64 1.64,1.64 0.906,0 1.644,-0.736 1.644,-1.64 0,-0.906 -0.737,-1.643 -1.644,-1.643 z M 46.98,52.1 c -0.905,0 -1.642,0.737 -1.642,1.644 0,0.903 0.736,1.64 1.64,1.64 0.907,0 1.643,-0.737 1.643,-1.64 0,-0.907 -0.735,-1.644 -1.64,-1.644 z" />
    <circle
       style="fill:#004191;fill-opacity:1"
       id="circle208"
       r="1.642"
       cy="18.721001"
       cx="61.647999" />
    <path
       style="fill:#004191;fill-opacity:1"
       id="path210"
       d="m 73.27,18.445 c 0,0.905 0.737,1.64 1.64,1.64 0.907,0 1.646,-0.735 1.646,-1.64 0,-0.906 -0.738,-1.642 -1.645,-1.642 -0.903,0 -1.64,0.737 -1.64,1.642 z" />
    <circle
       style="fill:#004191;fill-opacity:1"
       id="circle212"
       r="1.642"
       cy="21.809"
       cx="71.278999" />
    <path
       style="fill:#004191;fill-opacity:1"
       id="path214"
       d="m 75.53,25.983 c 0.905,0 1.643,-0.736 1.643,-1.64 0,-0.907 -0.737,-1.645 -1.644,-1.645 -0.904,0 -1.64,0.738 -1.64,1.644 0,0.905 0.736,1.64 1.64,1.64 z" />
    <circle
       style="fill:#004191;fill-opacity:1"
       id="circle216"
       r="1.642"
       cy="30.259001"
       cx="75.787003" />
    <circle
       style="fill:#004191;fill-opacity:1"
       id="circle218"
       r="1.641"
       cy="27.423"
       cx="71.665001" />
    <path
       style="fill:#004191;fill-opacity:1"
       id="path220"
       d="m 67.863,26.532 c 0.906,0 1.644,-0.736 1.644,-1.64 0,-0.906 -0.737,-1.643 -1.644,-1.643 -0.903,0 -1.64,0.736 -1.64,1.64 0,0.906 0.737,1.642 1.64,1.642 z" />
  </g>
</svg>
